<svg xmlns="http://www.w3.org/2000/svg" width="512" height="512" viewBox="0 0 512 512" version="1.1">
	<path d="M 207.678 100.376 C 205.576 101.167, 200.176 103.977, 195.678 106.621 C 183.589 113.728, 179.185 115.684, 172.208 117.047 C 165.480 118.362, 150.424 117.896, 147.544 116.285 C 146.025 115.435, 146.119 115.152, 148.422 113.643 C 152.176 111.183, 151.987 106.562, 148.050 104.526 C 142.496 101.654, 132.232 103.346, 130.681 107.390 C 129.869 109.504, 129.602 179.546, 130.400 180.838 C 130.769 181.435, 132.613 182.212, 134.499 182.566 C 136.386 182.920, 138.467 183.858, 139.125 184.651 C 140.635 186.470, 139.609 251.994, 138.024 254.956 C 136.587 257.640, 133.115 258.543, 131.281 256.710 C 129.954 255.382, 130.027 254.973, 131.929 253.071 C 133.108 251.892, 134.514 251.200, 135.053 251.533 C 136.417 252.375, 135.224 254, 133.241 254 C 132.112 254, 131.922 254.322, 132.633 255.033 C 133.954 256.354, 136.659 255.330, 137.477 253.199 C 138.884 249.533, 132.618 248.346, 129.797 251.744 C 127.956 253.963, 128.631 316.163, 130.578 323.638 C 132.744 331.954, 135.913 337.792, 141.590 343.924 C 151.821 354.975, 161.043 357.938, 185.500 358.032 C 194.300 358.066, 207.154 358.452, 214.065 358.889 C 228.989 359.834, 235.358 362.204, 242.381 369.431 C 244.823 371.944, 247.631 374, 248.619 374 C 249.608 374, 252.534 371.780, 255.122 369.067 C 258.913 365.093, 261.157 363.713, 266.664 361.970 C 272.736 360.048, 276.798 359.723, 303 359.066 C 331.099 358.361, 332.816 358.207, 339.157 355.821 C 350.196 351.667, 357.333 344.819, 362.907 333.033 C 367.089 324.189, 367.849 317.308, 368.305 284.105 C 368.685 256.506, 368.596 254.596, 366.855 252.855 C 364.588 250.588, 360.158 250.425, 359.332 252.578 C 358.999 253.445, 359.452 254.881, 360.339 255.768 C 362.312 257.740, 363.785 256.650, 362.020 254.524 C 360.958 253.245, 361.077 253, 362.755 253 C 365.259 253, 367.412 255.485, 366.643 257.487 C 366.034 259.076, 362.336 259.501, 360.313 258.214 C 359.659 257.799, 358.710 256.343, 358.203 254.980 C 356.751 251.076, 356.623 187.159, 358.063 185.424 C 358.713 184.641, 360.742 184, 362.573 184 C 364.599 184, 366.255 183.367, 366.806 182.382 C 367.325 181.455, 367.509 165.545, 367.236 145.132 C 366.848 116.021, 366.497 109.199, 365.319 107.853 C 363.390 105.651, 355.481 103.744, 351.612 104.549 C 343.777 106.179, 341.923 110.229, 347.142 114.314 L 350.284 116.773 345.093 117.887 C 333.692 120.332, 320.706 118.591, 310 113.182 C 305.875 111.098, 298 106.994, 292.500 104.061 L 282.500 98.730 269.500 99.555 C 253.819 100.550, 245.074 100.567, 226 99.641 C 214.490 99.082, 210.712 99.234, 207.678 100.376 M 208.500 101.799 C 205.750 102.753, 200.119 105.643, 195.988 108.222 C 191.856 110.801, 185.331 114.151, 181.488 115.668 C 175.105 118.186, 173.331 118.428, 161 118.463 C 148.405 118.497, 147.198 118.332, 143 115.987 C 137.851 113.112, 136.356 108.950, 139.809 107.102 C 142.169 105.839, 143.401 106.811, 141.834 108.700 C 139.993 110.918, 142.358 112.613, 145.663 111.445 C 151.551 109.364, 148.496 105, 141.151 105 C 129.277 105, 128.674 113.980, 140.208 119.038 C 144.825 121.063, 147.030 121.349, 157.500 121.281 C 173.520 121.178, 181.953 118.902, 197.133 110.587 C 210.373 103.334, 215.051 101.422, 217.374 102.313 C 219.131 102.988, 219.643 106, 218 106 C 217.450 106, 217 105.550, 217 105 C 217 103.457, 213.396 103.818, 212 105.500 C 211.004 106.700, 211.018 107.317, 212.072 108.586 C 214.619 111.656, 223 108.046, 223 103.880 C 223 99.879, 216.661 98.969, 208.500 101.799 M 225 103.481 C 225 105.196, 224.572 107.027, 224.050 107.550 C 223.450 108.150, 231.343 108.500, 245.476 108.500 L 267.852 108.500 267.778 105.894 C 267.737 104.461, 268.001 102.807, 268.365 102.219 C 268.828 101.470, 264.608 101.305, 254.263 101.670 C 246.143 101.956, 236.238 101.778, 232.250 101.275 L 225 100.362 225 103.481 M 273.250 101.479 C 267.609 103.951, 269.880 110, 276.449 110 C 280.534 110, 282.841 107.718, 281 105.500 C 279.296 103.447, 276 103.579, 276 105.700 C 276 107.069, 275.757 107.153, 274.750 106.133 C 273.748 105.117, 273.887 104.580, 275.448 103.428 C 277.878 101.635, 279.526 102.079, 289.500 107.212 C 293.900 109.476, 300.425 112.824, 304 114.652 C 312.986 119.245, 320.566 121.023, 334 121.689 C 352.910 122.626, 363.500 119.144, 363.500 111.990 C 363.500 109.334, 362.935 108.273, 361 107.294 C 357.124 105.333, 350.595 105.683, 347.861 107.999 C 345.544 109.961, 345.536 110.027, 347.441 111.499 C 349.423 113.031, 353.161 113.505, 354.298 112.369 C 354.645 112.021, 354.458 110.856, 353.882 109.779 C 353.015 108.160, 353.133 107.880, 354.560 108.161 C 355.509 108.347, 356.782 109.287, 357.388 110.250 C 360.223 114.752, 351.510 118.886, 337.500 119.685 C 325.912 120.346, 315.926 118.287, 306 113.190 C 301.875 111.071, 294.900 107.481, 290.500 105.212 C 280.990 100.307, 277.598 99.573, 273.250 101.479 M 223 111.154 C 219.425 111.649, 214.885 111.823, 212.911 111.541 C 209.963 111.119, 208.892 111.489, 206.911 113.614 C 205.585 115.037, 201.800 117.558, 198.500 119.217 C 182.381 127.321, 169.381 139.108, 157.935 155.996 C 154.396 161.218, 148.178 168.981, 144.117 173.246 C 140.057 177.511, 137.212 181, 137.796 181 C 138.380 181, 139.564 181.707, 140.429 182.571 C 141.775 183.918, 142 187.797, 142 209.670 L 142 235.198 147.869 230.113 C 153.123 225.562, 153.805 224.525, 154.375 220.228 C 155.448 212.145, 159.072 208.862, 168.477 207.451 C 172.546 206.841, 174.369 205.818, 178.714 201.709 C 181.621 198.960, 184 196.304, 184 195.807 C 184 194.347, 178.652 190.066, 176.785 190.032 C 175.004 189.999, 172.568 186.608, 172.452 184 C 172.415 183.175, 172.007 181.192, 171.545 179.594 C 170.919 177.430, 171.088 176.409, 172.207 175.591 C 173.033 174.987, 174.022 173.505, 174.406 172.297 C 174.789 171.090, 175.867 169.843, 176.801 169.526 C 177.736 169.209, 179.331 167.807, 180.346 166.410 C 182.037 164.083, 182.059 163.722, 180.604 162.114 C 179.137 160.493, 179.245 160.139, 182.026 157.475 L 185.038 154.590 188.113 158.321 L 191.189 162.052 207.138 146.776 C 236.265 118.877, 244.900 111.567, 246.653 113.319 C 248.226 114.893, 231.621 134.618, 202.100 166.245 C 198.710 169.877, 198.663 170.034, 200.552 171.440 C 202.360 172.786, 203.076 172.328, 210.500 165.076 C 214.900 160.778, 220.933 155.379, 223.906 153.078 C 228.780 149.307, 229.096 148.838, 227.116 148.320 C 224.538 147.646, 224.788 145.882, 227.643 144.587 C 228.750 144.085, 230.257 142.285, 230.992 140.587 C 232.307 137.550, 237 132.003, 237 133.486 C 237 133.903, 237.563 133.802, 238.250 133.260 C 238.938 132.719, 240.722 131.984, 242.215 131.628 C 245.410 130.865, 250.622 126.006, 249.201 125.115 C 248.592 124.732, 248.678 124.077, 249.429 123.380 C 250.324 122.550, 251.121 122.615, 252.509 123.630 C 254.332 124.963, 254.330 125.001, 252.441 125.052 C 250.643 125.101, 250.665 125.220, 252.750 126.674 C 253.988 127.538, 255 128.864, 255 129.622 C 255 130.380, 255.371 131, 255.824 131 C 257.169 131, 275.553 113.281, 274.909 112.605 C 272.704 110.291, 236.532 109.280, 223 111.154 M 233.916 124.670 C 229.287 128.889, 217.942 139.801, 208.705 148.920 L 191.909 165.500 188.383 161.687 C 185.502 158.571, 184.591 158.094, 183.403 159.080 C 182.142 160.127, 182.185 160.547, 183.725 162.253 C 184.701 163.334, 187.750 165.728, 190.500 167.571 C 193.250 169.415, 196.584 172.535, 197.908 174.504 C 199.658 177.106, 200.614 177.783, 201.408 176.980 C 202.200 176.180, 201.605 175.138, 199.241 173.188 C 197.449 171.710, 195.986 170.121, 195.991 169.657 C 196 168.778, 196.982 167.676, 221.594 140.913 C 238.635 122.383, 243.402 117, 242.770 117 C 242.529 117, 238.545 120.452, 233.916 124.670 M 363.621 117.863 C 361.613 120.977, 353.793 123.226, 343.094 123.766 L 332.500 124.301 321.864 135.015 C 316.014 140.908, 304.989 150.389, 297.364 156.085 C 289.739 161.780, 283.169 166.903, 282.765 167.470 C 282.360 168.036, 281.742 170.075, 281.391 172 C 280.561 176.554, 277.510 179.814, 273.349 180.594 C 269.119 181.388, 269.993 183, 274.653 183 C 277.346 183, 278.312 182.524, 278.710 181 C 279.377 178.451, 282.175 178.431, 284.464 180.960 C 288.114 184.994, 283.148 191, 276.162 191 C 274.638 191, 274.149 191.944, 273.701 195.750 C 273.218 199.848, 273.472 200.838, 275.555 202.961 L 277.968 205.423 281.515 201.985 C 284.707 198.892, 285.635 198.545, 290.781 198.524 C 296.286 198.501, 296.512 198.603, 296.817 201.256 C 297.023 203.049, 296.589 204.221, 295.573 204.610 C 293.524 205.397, 294.566 207, 297.126 207 C 298.703 207, 298.993 206.554, 298.477 204.928 C 297.676 202.404, 300.439 199, 303.290 199 C 304.380 199, 306.258 197.988, 307.464 196.750 C 308.671 195.512, 315.185 190.675, 321.939 186 C 347.438 168.352, 350.685 165.881, 357.774 158.736 L 365.049 151.404 364.774 133.952 C 364.609 123.448, 364.150 117.043, 363.621 117.863 M 243.538 132.939 C 243.207 133.474, 242.279 133.661, 241.476 133.353 C 240.674 133.045, 239.751 133.486, 239.426 134.333 C 239.101 135.180, 238.197 135.629, 237.417 135.330 C 236.557 135, 236 135.417, 236 136.393 C 236 137.277, 235.277 138, 234.393 138 C 233.375 138, 232.997 138.550, 233.362 139.500 C 233.678 140.325, 233.501 141, 232.969 141 C 232.436 141, 232 141.900, 232 143 C 232 145.574, 233.677 145.592, 234.492 143.026 C 235.534 139.741, 239.920 137, 244.135 137 C 247.685 137, 248 137.224, 248 139.750 C 248 142.017, 248.439 142.500, 250.500 142.500 C 252.561 142.500, 253 142.017, 253 139.750 C 253 137.200, 253.296 137, 257.077 137 C 260.195 137, 261.803 137.649, 263.913 139.760 C 265.431 141.277, 266.886 143.157, 267.146 143.937 C 267.413 144.738, 268.136 145.034, 268.809 144.618 C 270.253 143.726, 270.397 141, 269 141 C 268.450 141, 268 140.293, 268 139.429 C 268 137.408, 265.592 135, 263.571 135 C 262.707 135, 262 134.522, 262 133.937 C 262 133.353, 261.212 133.004, 260.250 133.162 C 259.288 133.321, 257.998 133.134, 257.384 132.749 C 256.770 132.363, 255.462 132.937, 254.479 134.024 C 252.203 136.539, 249.939 136.527, 246.705 133.982 C 245.224 132.818, 243.885 132.377, 243.538 132.939 M 248.500 133 C 248.840 133.550, 249.740 134, 250.500 134 C 251.260 134, 252.160 133.550, 252.500 133 C 252.852 132.431, 251.991 132, 250.500 132 C 249.009 132, 248.148 132.431, 248.500 133 M 239.239 139.666 C 237.751 140.266, 235.572 144.002, 236.715 143.995 C 237.147 143.992, 239.300 142.881, 241.500 141.526 C 245.084 139.319, 245.240 139.067, 243 139.110 C 241.625 139.136, 239.932 139.387, 239.239 139.666 M 249.392 145.579 C 249.895 146.889, 249.467 147.042, 246.881 146.474 C 244.490 145.949, 243.873 146.105, 244.235 147.145 C 244.495 147.890, 245.448 148.368, 246.354 148.206 C 248.460 147.830, 248.516 150.588, 246.418 151.393 C 243.279 152.598, 236.261 152.020, 234.958 150.449 C 233.871 149.140, 234.007 148.811, 235.836 148.333 C 237.026 148.021, 238 147.369, 238 146.883 C 238 145.723, 237.300 145.769, 234.827 147.093 C 233.350 147.883, 232.483 147.883, 231.693 147.093 C 231.092 146.492, 229.960 146, 229.178 146 C 228.027 146, 227.993 146.286, 229 147.500 C 229.685 148.325, 230.640 149, 231.122 149 C 231.605 149, 232.900 149.900, 234 151 C 235.754 152.754, 237.322 152.998, 246.750 152.985 C 255.927 152.973, 257.146 152.790, 255.079 151.735 C 251.899 150.113, 251.241 148, 253.917 148 C 255.063 148, 256 147.501, 256 146.892 C 256 146.212, 255.044 146.023, 253.527 146.404 C 251.587 146.891, 251.179 146.698, 251.634 145.512 C 252.012 144.525, 251.619 144, 250.500 144 C 249.349 144, 248.985 144.519, 249.392 145.579 M 268.520 146.967 C 268.191 147.499, 266.477 147.720, 264.711 147.458 L 261.500 146.981 264.313 148.316 C 267.184 149.679, 266.786 150.885, 263 152.287 C 261.811 152.727, 261.863 152.858, 263.250 152.921 C 264.212 152.964, 265.900 152.100, 267 151 C 268.100 149.900, 269.395 149, 269.878 149 C 270.360 149, 271.315 148.325, 272 147.500 C 273.038 146.249, 272.902 146, 271.181 146 C 270.047 146, 268.849 146.435, 268.520 146.967 M 236 155.500 C 236 156.325, 236.825 157, 237.833 157 C 238.842 157, 239.667 156.325, 239.667 155.500 C 239.667 154.675, 238.842 154, 237.833 154 C 236.825 154, 236 154.675, 236 155.500 M 242.333 155.500 C 242.333 156.745, 244.256 157, 253.635 157 C 263.271 157, 264.852 156.779, 264.362 155.500 C 264.045 154.675, 263.133 154, 262.334 154 C 261.535 154, 261.160 154.450, 261.500 155 C 261.852 155.569, 260.991 156, 259.500 156 C 258.009 156, 257.148 155.569, 257.500 155 C 257.862 154.415, 256.824 154, 255 154 C 253.176 154, 252.138 154.415, 252.500 155 C 252.852 155.569, 251.991 156, 250.500 156 C 249.009 156, 248.148 155.569, 248.500 155 C 248.866 154.408, 247.733 154, 245.726 154 C 243.377 154, 242.333 154.461, 242.333 155.500 M 228 158.877 C 228 159.433, 229.086 161.151, 230.414 162.694 C 232.661 165.305, 233.052 165.416, 236.048 164.286 C 238.201 163.475, 239.864 163.392, 241.068 164.036 C 243.878 165.540, 249.237 165.173, 253.079 163.215 C 255.322 162.071, 257.466 161.676, 259.041 162.115 C 265.091 163.802, 267.383 162.230, 262.077 160.032 C 260.155 159.236, 254.593 158.917, 245.827 159.102 C 238.497 159.256, 231.488 159.041, 230.250 158.624 C 228.900 158.168, 228 158.270, 228 158.877 M 267.236 160.564 C 269.134 162.818, 268.052 165, 265.037 165 C 264.178 165, 263.030 166.012, 262.487 167.250 C 260.894 170.882, 255.406 171.691, 249.771 169.124 C 247.207 167.956, 243.960 167, 242.555 167 L 240 167 240 178.851 C 240 191.186, 238.937 196.440, 236.145 197.905 C 235.240 198.379, 232.628 199.078, 230.339 199.457 C 224.930 200.352, 222.539 202.946, 223.356 207.032 C 223.842 209.459, 223.465 210.626, 221.593 212.498 C 219.097 214.994, 219.147 216.265, 221.701 215.284 C 222.529 214.967, 224.028 212.860, 225.033 210.603 L 226.859 206.500 226.929 209.615 C 226.969 211.345, 226.078 213.902, 224.927 215.365 L 222.855 218 224.927 218 C 227.586 218, 231 214.599, 231 211.950 C 231 209.280, 233.745 204, 235.133 204 C 235.781 204, 235.914 204.700, 235.465 205.750 C 235.052 206.713, 234.415 209.601, 234.047 212.169 C 233.680 214.737, 232.834 217.495, 232.167 218.298 C 231.164 219.507, 231.432 219.856, 233.728 220.329 C 237.396 221.085, 240 218.061, 240 213.044 C 240 210.697, 240.679 208.695, 241.829 207.655 C 244.283 205.434, 245.304 205.563, 244.035 207.934 C 243.466 208.998, 243 211.823, 243 214.212 C 243 216.601, 242.299 219.555, 241.443 220.777 C 240.587 222, 240.336 223, 240.884 223 C 241.433 223, 242.190 222.502, 242.566 221.893 C 243.048 221.114, 243.486 221.169, 244.049 222.079 C 244.701 223.134, 245.137 223.131, 246.424 222.063 C 247.523 221.151, 248 219.022, 248 215.033 C 248 210.574, 248.443 208.909, 250.006 207.494 C 252.488 205.249, 253.562 206.081, 251.985 209.028 C 251.337 210.238, 251.005 212.864, 251.247 214.864 C 251.488 216.864, 251.327 219.776, 250.888 221.335 C 250.095 224.155, 250.104 224.162, 252.545 222.562 C 254.833 221.063, 255.002 221.075, 255.032 222.727 C 255.062 224.385, 255.155 224.380, 256.472 222.641 C 257.453 221.345, 257.706 219.310, 257.304 215.922 C 256.717 210.965, 258.639 206, 261.145 206 C 261.930 206, 261.921 206.390, 261.115 207.361 C 259.947 208.769, 259.958 223.972, 261.128 223.990 C 261.473 223.996, 262.333 223.304, 263.039 222.453 C 264.066 221.215, 264.491 221.165, 265.162 222.203 C 265.833 223.241, 266.196 223.201, 266.985 222 C 268.290 220.011, 268.255 216.030, 266.898 212.137 C 266.292 210.398, 266.101 208.193, 266.474 207.237 C 266.986 205.925, 267.735 206.846, 269.536 211 C 270.847 214.025, 271.938 217.213, 271.960 218.083 C 272.006 219.885, 275.123 220.261, 276.235 218.599 C 276.639 217.994, 276.976 215.602, 276.985 213.283 C 276.997 209.821, 276.400 208.466, 273.642 205.708 C 271.795 203.861, 270.107 201.821, 269.892 201.175 C 269.633 200.401, 266.434 199.970, 260.500 199.912 C 253.836 199.847, 251.046 199.418, 249.750 198.257 C 247.091 195.876, 247.652 195.042, 251.052 196.326 C 253.566 197.275, 254.622 197.179, 257.052 195.785 C 259.521 194.368, 260 194.329, 260 195.547 C 260 197.413, 262.081 197.406, 264.559 195.532 C 267.094 193.614, 269.092 193.598, 268.362 195.500 C 268.045 196.325, 268.194 197, 268.693 197 C 270.244 197, 272 194.691, 272 192.653 C 272 190.820, 271.442 190.739, 262.424 191.277 C 253.859 191.788, 252.646 191.646, 250.924 189.924 C 248.764 187.764, 248.567 186.270, 249.957 182.613 C 251.611 178.262, 255.538 177.035, 265.705 177.694 C 274.007 178.232, 274.892 178.108, 276.861 176.139 C 279.340 173.660, 279.671 171, 277.500 171 C 275.253 171, 275.693 169.313, 278.105 168.683 C 281.340 167.837, 279.871 165.799, 274.776 164.066 C 272.245 163.205, 269.123 161.600, 267.837 160.500 L 265.500 158.500 267.236 160.564 M 253.750 165.392 C 251.498 167.101, 251.545 167.648, 254 168.290 C 255.100 168.577, 256 168.442, 256 167.988 C 256 167.535, 256.273 166.452, 256.607 165.582 C 257.341 163.669, 256.126 163.589, 253.750 165.392 M 182.165 169.480 C 182.349 171.056, 183.063 172.530, 183.750 172.756 C 185.566 173.352, 185.298 169.492, 183.415 167.929 C 182.023 166.774, 181.871 166.963, 182.165 169.480 M 226 171 C 222.963 174.037, 223.592 174.910, 227.750 173.426 C 229.813 172.690, 232.261 172.068, 233.191 172.044 C 234.121 172.020, 235.157 171.555, 235.493 171.011 C 235.843 170.445, 235.442 170.277, 234.552 170.618 C 233.698 170.946, 233 170.716, 233 170.107 C 233 168.251, 228.127 168.873, 226 171 M 177.169 174.161 C 177.351 175.447, 178.175 176.500, 179 176.500 C 181.169 176.500, 180.870 172.599, 178.669 172.175 C 177.249 171.901, 176.912 172.347, 177.169 174.161 M 190.293 174.679 C 189.930 175.626, 190.605 178.106, 191.841 180.362 C 193.417 183.239, 193.728 184.666, 192.946 185.433 C 192.171 186.193, 191.287 185.801, 189.874 184.071 L 187.890 181.643 184.195 185.376 L 180.500 189.108 183.113 191.304 C 184.551 192.512, 187.124 194.259, 188.833 195.186 C 191.200 196.471, 192.213 197.962, 193.092 201.453 C 194.329 206.365, 196 208.437, 196 205.059 C 196 200.985, 197.756 203.107, 198.400 207.959 C 199.180 213.839, 200.516 215.171, 201.367 210.917 C 201.707 209.216, 202.425 208.145, 202.992 208.495 C 203.550 208.840, 203.744 210.172, 203.422 211.454 C 203.081 212.812, 203.580 215.185, 204.618 217.142 C 206.136 220.003, 206.458 220.204, 206.797 218.500 C 207.513 214.896, 208.737 214.785, 209.390 218.265 C 209.742 220.142, 212.270 224.563, 215.007 228.089 C 217.744 231.615, 220.263 235.967, 220.605 237.759 C 221.475 242.323, 217.627 249.689, 209.508 259 C 203.100 266.349, 198 274.781, 198 278.027 C 198 279.650, 195.502 281.316, 191.323 282.481 C 188.388 283.300, 182.440 280.690, 180.967 277.938 C 179.087 274.425, 180.367 267.781, 183.918 262.619 C 189.936 253.872, 191.617 246.520, 188.532 242.441 C 186.871 240.245, 186.842 240.338, 186.631 248.624 C 186.519 253.019, 185.801 254.762, 181.587 260.874 C 178.885 264.793, 176.466 268, 176.213 268 C 175.960 268, 175.950 265.617, 176.191 262.704 C 176.498 259.006, 178.323 253.803, 182.242 245.454 C 189.184 230.662, 190.537 225.709, 189.096 220.356 C 186.826 211.926, 179.308 208.239, 168.253 210.134 C 163.275 210.987, 161.498 211.808, 159.503 214.179 C 158.126 215.815, 157.016 217.906, 157.036 218.827 C 157.062 220.048, 157.736 219.690, 159.531 217.500 C 161.894 214.618, 161.990 214.590, 161.995 216.798 C 161.998 218.062, 160.875 220.138, 159.500 221.412 C 156.403 224.282, 155.995 227.608, 158.932 226.036 C 159.995 225.467, 161.150 224.102, 161.500 223.001 C 162.367 220.269, 164 220.473, 164 223.313 C 164 224.585, 162.650 226.919, 161 228.500 C 156.667 232.651, 157.138 234.176, 162.008 231.766 C 166.145 229.719, 166.482 229.044, 167.376 221.002 C 167.734 217.783, 168.621 215.863, 170.494 214.252 C 173.705 211.490, 176.517 211.408, 180.696 213.956 C 189.085 219.072, 189.092 225.938, 180.725 243.604 C 174.134 257.522, 172.589 263.035, 173.205 270.455 C 173.765 277.209, 177.387 283.007, 182.588 285.475 C 186.381 287.275, 188.138 287.154, 197.623 284.440 C 199.352 283.946, 199.955 284.433, 200.873 287.066 C 202.758 292.473, 202.273 296.454, 199.377 299.351 C 196.922 301.806, 191.546 303.982, 187.905 303.994 C 186.084 304.001, 183 307.062, 183 308.864 C 183 309.748, 183.518 309.793, 184.939 309.032 C 188.138 307.321, 188.160 309.527, 184.972 312.367 C 182.017 315, 181.141 317, 182.943 317 C 183.462 317, 184.587 316, 185.443 314.777 C 186.807 312.830, 187 312.781, 187 314.383 C 187 315.389, 185.857 317.570, 184.459 319.231 C 181.334 322.944, 182.084 324.210, 185.504 320.996 L 188 318.651 188 323.891 C 188 330.385, 189.075 332.482, 193.128 333.895 C 197.424 335.392, 198.481 335.284, 197 333.500 C 195.942 332.225, 196.186 332.005, 198.628 332.035 C 200.207 332.055, 202.625 332.714, 204 333.500 C 206.858 335.134, 213 335.488, 213 334.019 C 213 333.480, 211.878 332.757, 210.507 332.412 C 205.836 331.240, 209.073 330.038, 215.182 330.677 C 220.162 331.197, 221.187 331.057, 220.807 329.907 C 220.507 328.997, 218.517 328.393, 215.171 328.198 C 208.419 327.803, 208.557 325.033, 215.332 324.985 C 216.524 324.976, 218.152 324.557, 218.948 324.053 C 220.113 323.316, 219.891 322.907, 217.811 321.960 C 215.583 320.945, 214.614 321.142, 210.776 323.391 C 206.008 326.186, 203.024 326.619, 199.934 324.965 C 198.384 324.135, 198 322.844, 198 318.465 C 198 310.641, 199.488 309.474, 210.454 308.700 C 220.383 308, 223.509 306.514, 224.494 302.025 C 225.383 297.978, 227.300 299.304, 226.796 303.618 C 226.350 307.443, 226.656 307.630, 229.777 305.443 C 232.202 303.745, 232.758 299.286, 230.965 295.934 C 229.518 293.230, 231.702 293.371, 234.686 296.174 C 236.693 298.060, 237 298.121, 237 296.634 C 237 295.691, 236.019 293.593, 234.821 291.972 C 232.188 288.411, 232.670 287.597, 236.296 289.478 C 238.758 290.756, 239 290.719, 239 289.061 C 239 288.060, 236.975 284.633, 234.500 281.446 C 230.148 275.841, 229.122 272.451, 230.607 268.582 C 231.538 266.156, 233 266.703, 233 269.478 C 233 271.779, 233.303 271.626, 237.250 267.337 C 239.588 264.798, 244.883 260.142, 249.019 256.991 C 260.049 248.587, 260.182 248.302, 253.030 248.399 C 249.526 248.446, 246.570 247.970, 245.840 247.240 C 245.158 246.558, 243.678 245.985, 242.550 245.967 C 237.467 245.886, 229.760 242.155, 225.927 237.919 C 222.286 233.896, 220.554 229.988, 223.111 231.569 C 223.907 232.060, 224.016 230.727, 223.495 226.878 C 223.095 223.920, 222.376 221.352, 221.897 221.171 C 219.170 220.141, 216.863 217.022, 216.320 213.635 C 215.741 210.022, 215.841 209.815, 217.851 210.453 C 219.033 210.828, 220 210.857, 220 210.518 C 220 210.179, 215.979 206.075, 211.064 201.398 C 203.182 193.897, 201.884 192.160, 200.056 186.667 C 197.888 180.154, 193.636 173, 191.933 173 C 191.385 173, 190.647 173.756, 190.293 174.679 M 230.500 175.579 C 226.757 176.924, 223 180.166, 223 182.051 C 223 182.508, 224.238 182.236, 225.750 181.447 C 227.262 180.658, 229.426 180.010, 230.559 180.006 C 232.897 179.999, 237.375 177.084, 235.128 177.032 C 234.021 177.006, 233.996 176.709, 235 175.500 C 236.504 173.688, 235.723 173.701, 230.500 175.579 M 173.503 177.995 C 172.786 179.155, 174.647 182, 176.122 182 C 177.504 182, 177.147 179.367, 175.589 178.074 C 174.581 177.237, 173.985 177.215, 173.503 177.995 M 255.643 180.768 C 255.382 181.191, 256.930 181.369, 259.084 181.163 C 261.238 180.958, 263 180.612, 263 180.395 C 263 179.650, 256.118 179.999, 255.643 180.768 M 180 182.559 C 180 183.416, 180.450 183.840, 181 183.500 C 181.550 183.160, 182 182.459, 182 181.941 C 182 181.423, 181.550 181, 181 181 C 180.450 181, 180 181.702, 180 182.559 M 231.557 181.989 C 227.530 182.764, 223 186.783, 223 189.581 C 223 190.862, 223.380 190.855, 225.950 189.526 C 227.573 188.687, 229.773 188, 230.840 188 C 231.906 188, 233.841 187.115, 235.139 186.033 L 237.500 184.067 235.059 184.033 C 232.697 184.001, 232.681 183.952, 234.559 182.532 C 235.626 181.724, 236.275 181.101, 236 181.147 C 235.725 181.193, 233.726 181.572, 231.557 181.989 M 175.500 187 C 175.840 187.550, 176.316 188, 176.559 188 C 176.802 188, 177 187.550, 177 187 C 177 186.450, 176.523 186, 175.941 186 C 175.359 186, 175.160 186.450, 175.500 187 M 254.929 188.585 C 253.774 189.977, 253.963 190.129, 256.480 189.835 C 258.056 189.651, 259.530 188.938, 259.756 188.250 C 260.352 186.434, 256.492 186.702, 254.929 188.585 M 230.566 190.582 C 225.703 192.363, 223 194.724, 223 197.190 C 223 198.658, 223.383 198.872, 224.750 198.167 C 225.713 197.670, 228.142 196.967, 230.150 196.605 C 234.680 195.788, 237.530 193.012, 233.872 192.978 L 231.500 192.956 234 191 C 236.931 188.707, 235.996 188.593, 230.566 190.582 M 301.278 202.122 C 300.661 202.739, 300.402 203.883, 300.702 204.665 C 301.156 205.848, 301.561 205.802, 303.124 204.388 C 304.156 203.454, 305 202.310, 305 201.845 C 305 200.627, 302.594 200.806, 301.278 202.122 M 312.543 201.931 C 311.803 203.128, 313.684 204.313, 315.016 203.490 C 316.135 202.799, 315.400 201, 314 201 C 313.515 201, 312.859 201.419, 312.543 201.931 M 317.500 205 C 317.840 205.550, 318.568 206, 319.118 206 C 319.668 206, 319.840 205.550, 319.500 205 C 319.160 204.450, 318.432 204, 317.882 204 C 317.332 204, 317.160 204.450, 317.500 205 M 296 215.252 C 296 216.133, 295.212 217.059, 294.250 217.311 C 292.644 217.730, 292.650 217.778, 294.323 217.884 C 296.570 218.027, 296.215 220.836, 293.753 222.386 C 292.460 223.200, 291.487 223.161, 290.003 222.234 C 287.954 220.954, 287.531 221.615, 288.607 224.418 C 289.090 225.676, 290.832 226, 297.107 226 C 304.084 226, 305 225.788, 305 224.173 C 305 222.740, 304.395 222.435, 302.193 222.758 C 298.555 223.292, 295.714 220.419, 298.124 218.642 C 299.507 217.622, 299.476 217.294, 297.836 215.575 C 296.287 213.951, 296 213.900, 296 215.252 M 322 215.441 C 322 216.298, 321.239 217, 320.309 217 C 318.822 217, 318.848 217.168, 320.521 218.392 C 322.138 219.574, 322.224 220.025, 321.090 221.392 C 319.493 223.315, 316.885 223.472, 315.115 221.750 C 314.077 220.740, 313.895 220.979, 314.165 223 C 314.488 225.410, 314.798 225.510, 322.750 225.790 L 331 226.081 331 223.340 C 331 221.209, 330.733 220.867, 329.800 221.800 C 328.123 223.477, 325.490 223.295, 323.910 221.392 C 322.776 220.025, 322.862 219.574, 324.479 218.392 C 326.212 217.125, 326.226 217, 324.632 217 C 323.670 217, 323.141 216.581, 323.457 216.069 C 323.774 215.557, 323.575 214.856, 323.016 214.510 C 322.457 214.165, 322 214.584, 322 215.441 M 287 217.882 C 287 218.432, 287.450 219.160, 288 219.500 C 288.550 219.840, 289 219.668, 289 219.118 C 289 218.568, 288.550 217.840, 288 217.500 C 287.450 217.160, 287 217.332, 287 217.882 M 304.543 217.931 C 304.226 218.443, 304.425 219.144, 304.984 219.490 C 305.543 219.835, 306 219.416, 306 218.559 C 306 216.802, 305.400 216.544, 304.543 217.931 M 313 218.441 C 313 219.298, 313.450 220, 314 220 C 314.550 220, 315 219.577, 315 219.059 C 315 218.541, 314.550 217.840, 314 217.500 C 313.450 217.160, 313 217.584, 313 218.441 M 330.543 217.931 C 330.226 218.443, 330.425 219.144, 330.984 219.490 C 331.543 219.835, 332 219.416, 332 218.559 C 332 216.802, 331.400 216.544, 330.543 217.931 M 226 223.951 C 226 227.360, 228.134 236, 228.976 236 C 230.252 236, 231 233.212, 231 228.453 C 231 225.143, 230.526 223.817, 229.066 223.035 C 226.386 221.601, 226 221.716, 226 223.951 M 271.798 224.351 C 267.193 226.058, 265.738 233.569, 269.203 237.744 C 270.371 239.152, 275.427 239.500, 274.570 238.114 C 274.269 237.626, 275.030 236.894, 276.261 236.487 L 278.500 235.746 276.323 235.313 C 272.316 234.516, 271.511 232.411, 273.515 227.967 C 274.504 225.774, 275.130 223.838, 274.906 223.664 C 274.683 223.491, 273.284 223.800, 271.798 224.351 M 233.699 229.373 C 234.172 233.960, 233.942 235.058, 232.127 236.873 C 230.002 238.998, 230.002 239, 232.059 239 C 233.191 239, 233.840 239.450, 233.500 240 C 232.813 241.112, 234.978 241.329, 237.418 240.393 C 238.660 239.916, 239 238.221, 239 232.500 C 239 226.779, 238.660 225.084, 237.418 224.607 C 233.636 223.156, 233.125 223.811, 233.699 229.373 M 344.824 229.995 C 338.809 234.275, 334.423 238.421, 330.526 243.508 C 322.946 253.405, 311.437 264.189, 308.871 263.801 C 307.452 263.586, 304.938 265.747, 300.039 271.395 L 293.191 279.290 294.595 283.271 C 296.474 288.595, 296.431 293, 294.500 293 C 293.655 293, 293 293.894, 293 295.050 C 293 297.974, 290.324 302.756, 287.990 304.006 C 286.484 304.811, 285.996 304.758, 285.985 303.785 C 285.973 302.772, 285.791 302.781, 285.127 303.829 C 284.664 304.560, 281.858 306.840, 278.892 308.896 C 273.743 312.467, 273.500 312.835, 273.500 317.068 C 273.500 321.174, 273.705 321.524, 276.288 321.820 C 278.253 322.046, 280.072 321.266, 282.449 319.179 C 285.086 316.864, 287.191 316.058, 292.088 315.490 C 297.497 314.862, 298.534 315.010, 299.677 316.572 C 301.685 319.319, 301.304 319.999, 297.750 320.015 C 295.284 320.027, 294.862 320.264, 296 321 C 296.825 321.533, 299.172 321.976, 301.215 321.985 C 303.854 321.996, 305.229 322.560, 305.965 323.934 C 307.522 326.844, 307.275 329.325, 305.500 328.607 C 304.675 328.273, 303.325 327.727, 302.500 327.393 C 301.675 327.059, 301 327.284, 301 327.893 C 301 328.502, 301.662 329, 302.471 329 C 303.282 329, 304.309 330.413, 304.758 332.147 L 305.574 335.295 313.590 325.897 C 317.999 320.729, 325.633 311.553, 330.553 305.507 C 341.816 291.670, 352.554 280.359, 359.563 274.952 C 364.829 270.888, 365 270.604, 365 265.878 C 365 261.706, 364.717 261, 363.047 261 C 360.232 261, 356.238 258.992, 355.322 257.115 C 354.888 256.227, 354.301 248.372, 354.017 239.660 L 353.500 223.820 344.824 229.995 M 244.119 225.785 C 241.854 226.155, 241.764 226.457, 242.267 232.007 C 242.618 235.878, 242.345 238.709, 241.455 240.425 C 240.196 242.851, 240.233 242.946, 242.057 241.970 C 243.393 241.254, 244 241.253, 244 241.965 C 244 244.192, 245.862 242.836, 246.902 239.851 C 248.145 236.286, 248.391 226.306, 247.250 225.758 C 246.838 225.560, 245.429 225.572, 244.119 225.785 M 275.755 228.388 C 273.839 232.406, 274.314 233.270, 277.614 231.766 C 279.434 230.937, 279.874 230.153, 279.402 228.583 C 278.305 224.937, 277.423 224.890, 275.755 228.388 M 250.784 234.464 C 250.521 238.569, 249.731 242.619, 249.030 243.464 C 247.533 245.268, 249.045 245.555, 250.800 243.800 C 251.733 242.867, 252 242.874, 252 243.835 C 252 244.760, 252.502 244.802, 254 244 C 255.743 243.067, 256 241.906, 256 234.965 C 256 227.254, 255.925 227, 253.632 227 C 251.395 227, 251.236 227.414, 250.784 234.464 M 259.502 234.018 C 260.070 239.671, 259.890 241.519, 258.580 243.518 C 256.555 246.608, 257.233 246.712, 260.098 243.750 L 262.273 241.500 261.730 243.750 C 261.087 246.417, 261.339 246.518, 263.429 244.429 C 264.593 243.264, 265 240.803, 265 234.929 L 265 227 261.899 227 L 258.797 227 259.502 234.018 M 207.716 241.750 C 204.095 246.563, 196.827 255.184, 191.566 260.909 C 181.178 272.213, 180.254 274.482, 184.635 277.927 C 189.595 281.829, 194.656 279.745, 196.612 272.994 C 197.415 270.226, 200.152 265.840, 203.709 261.621 C 213.072 250.517, 216.917 244.957, 217.544 241.616 C 218.158 238.345, 216.688 233, 215.175 233 C 214.694 233, 211.338 236.938, 207.716 241.750 M 309.116 234.357 C 309.040 235.575, 308.484 236.016, 307.500 235.638 C 306.675 235.322, 306 235.499, 306 236.031 C 306 236.564, 306.708 237, 307.573 237 C 309.606 237, 309.058 239.934, 306.753 241.386 C 305.460 242.200, 304.487 242.161, 303.003 241.234 C 301.196 240.105, 301 240.232, 301 242.532 L 301 245.081 309.250 244.790 C 317.004 244.517, 317.520 244.361, 317.827 242.193 C 318.125 240.089, 317.972 240.001, 316.074 241.186 C 314.525 242.153, 313.547 242.204, 312.247 241.386 C 309.942 239.934, 309.394 237, 311.427 237 C 312.292 237, 313 236.564, 313 236.031 C 313 235.499, 312.364 235.307, 311.587 235.605 C 310.757 235.924, 309.981 235.396, 309.703 234.323 C 309.254 232.587, 309.226 232.588, 309.116 234.357 M 165.263 241.116 C 157.023 246.771, 155.733 248.588, 156.259 253.792 L 156.634 257.500 158.036 254.250 C 158.808 252.463, 159.790 251, 160.219 251 C 161.714 251, 160.979 255.522, 158.942 258.863 C 156.489 262.887, 157.335 264.514, 160.046 260.985 C 161.750 258.768, 161.958 258.708, 161.978 260.436 C 161.990 261.500, 161.022 263.413, 159.826 264.686 C 157.133 267.552, 158.808 267.726, 162.341 264.946 C 165.478 262.479, 167.266 256.534, 166.442 251.312 C 165.290 244.010, 169.370 238.947, 176.645 238.651 C 182.116 238.427, 182.295 235.981, 176.833 236.075 C 173.343 236.135, 171.093 237.115, 165.263 241.116 M 300 237.559 C 300 238.416, 300.457 238.835, 301.016 238.490 C 301.575 238.144, 301.774 237.443, 301.457 236.931 C 300.600 235.544, 300 235.802, 300 237.559 M 317.500 237 C 317.160 237.550, 317.359 238, 317.941 238 C 318.523 238, 319 237.550, 319 237 C 319 236.450, 318.802 236, 318.559 236 C 318.316 236, 317.840 236.450, 317.500 237 M 244.250 264.989 C 242.463 266.079, 241 267.187, 241 267.452 C 241 267.716, 242.575 267.003, 244.500 265.867 C 246.425 264.732, 248 263.622, 248 263.401 C 248 262.762, 247.684 262.895, 244.250 264.989 M 241.500 270.861 C 239.850 271.880, 237.723 273.589, 236.774 274.659 C 235.129 276.513, 235.162 276.774, 237.460 280.156 C 239.605 283.312, 240.477 283.769, 245.301 284.267 C 248.286 284.575, 253.050 285.826, 255.887 287.047 C 267.051 291.849, 270.589 302.524, 262.500 307.001 C 260.850 307.915, 259.348 309.445, 259.163 310.402 C 258.848 312.027, 259.029 312.036, 261.913 310.545 C 264.418 309.250, 265 309.207, 265 310.319 C 265 311.843, 262.366 314.391, 259.889 315.263 C 257.930 315.953, 256.653 320, 258.394 320 C 259.057 320, 260.132 319.467, 260.783 318.817 C 263.033 316.567, 263.333 319.016, 261.099 321.395 C 259.490 323.107, 258.948 324.730, 259.178 327.141 L 259.500 330.500 262 326.500 L 264.500 322.500 264.802 327.743 C 265.177 334.252, 265.893 334.680, 277.200 335.143 C 285.117 335.468, 288.108 334.652, 282 333.835 C 280.625 333.651, 279.725 333.050, 280 332.500 C 280.557 331.385, 285.667 331.355, 291 332.434 C 293.546 332.950, 295.045 332.705, 296.500 331.537 C 298.414 330, 298.327 329.938, 294.500 330.105 C 288.768 330.355, 287 330.121, 287 329.114 C 287 328.626, 288.964 327.933, 291.365 327.573 C 293.766 327.213, 296.578 326.276, 297.615 325.491 C 299.440 324.109, 299.433 324.063, 297.399 324.032 C 296.244 324.014, 293.876 324.496, 292.137 325.102 C 290.398 325.708, 288.234 325.920, 287.329 325.573 C 285.921 325.032, 286.094 324.512, 288.518 321.981 C 290.078 320.353, 291.091 318.758, 290.770 318.437 C 289.948 317.614, 284.864 320.388, 282.593 322.898 C 280.141 325.606, 273.998 325.760, 271.655 323.171 C 270.745 322.165, 270 319.983, 270 318.320 C 270 312.678, 271.834 309.634, 277.122 306.500 C 283.261 302.862, 284.407 300.945, 283.570 295.714 C 282.987 292.068, 283.080 291.821, 284.568 293.056 C 285.470 293.805, 286.611 295.476, 287.102 296.769 C 287.594 298.062, 288.447 298.842, 288.998 298.501 C 290.465 297.595, 290.221 292.773, 288.500 288.654 C 286.438 283.719, 286.553 283.546, 290.183 286.130 C 292.889 288.057, 293.264 288.130, 292.683 286.617 C 292.307 285.638, 292 284.425, 292 283.921 C 292 281.757, 284.580 275.066, 279.993 273.092 C 270.223 268.889, 246.882 267.536, 241.500 270.861 M 169 282.169 C 167.075 283.793, 157.907 291.021, 148.628 298.232 L 131.755 311.342 132.288 316.421 C 133.528 328.237, 141.219 341.296, 150.608 347.528 C 153.485 349.438, 156.225 351, 156.697 351 C 157.168 351, 162.617 345.132, 168.806 337.961 L 180.057 324.922 180.142 315.952 C 180.246 304.874, 181.668 302.472, 188.752 301.410 C 195.997 300.324, 201.296 293.667, 198.235 289.500 C 197.831 288.950, 193.889 288.500, 189.476 288.500 C 180.907 288.500, 177.623 287.020, 174.022 281.535 L 172.500 279.217 169 282.169 M 250.944 324.605 C 249.600 326.061, 241.114 333.608, 232.086 341.376 L 215.672 355.500 221.860 356.273 C 230.810 357.391, 238.268 360.512, 243.665 365.399 L 248.390 369.677 251.722 366.345 C 253.554 364.513, 256.889 362.077, 259.133 360.932 C 263.924 358.488, 274.701 356.042, 280.788 356.017 C 284.867 356.001, 285.546 355.531, 294.665 346.412 C 303.431 337.646, 304.116 336.688, 302.662 335.233 C 301.366 333.937, 300.434 333.838, 297.626 334.700 C 295.731 335.281, 292.942 335.520, 291.427 335.231 C 289.126 334.791, 288.782 334.988, 289.335 336.432 C 290.054 338.305, 289.192 343, 288.129 343 C 287.769 343, 287.030 341.988, 286.487 340.750 C 285.585 338.693, 284.621 338.447, 275.256 337.878 C 265.076 337.259, 262 336.190, 262 333.271 C 262 332.264, 261.437 332.005, 260.250 332.467 C 256.929 333.759, 256.612 333.484, 256.259 329 C 255.759 322.628, 254.064 321.226, 250.944 324.605 M 240 387.933 C 240 388.446, 240.853 389.136, 241.895 389.467 C 244.638 390.337, 245.208 395.107, 244.409 410.510 L 243.712 423.940 246.606 425.058 C 248.198 425.673, 251.893 425.984, 254.819 425.750 C 261.375 425.225, 265.648 421.514, 267.091 415.093 C 269.594 403.952, 260.320 394.885, 252.223 400.557 L 250 402.113 250 394.557 L 250 387 245 387 C 242.250 387, 240 387.420, 240 387.933 M 169.362 389.500 C 168.484 391.787, 169.713 394, 171.862 394 C 174.010 394, 175.239 391.787, 174.362 389.500 C 174.045 388.675, 172.920 388, 171.862 388 C 170.803 388, 169.678 388.675, 169.362 389.500 M 178.659 389.447 C 177.691 391.969, 179.036 394, 181.673 394 C 183.766 394, 184.086 393.590, 183.816 391.250 C 183.456 388.120, 179.675 386.798, 178.659 389.447 M 137.759 391.423 C 131.635 393.609, 128.927 395.910, 126.787 400.749 C 122.885 409.571, 126.066 419.736, 133.985 423.750 C 138.805 426.193, 148.662 426.839, 153.435 425.025 C 155.852 424.106, 156 423.645, 156 417.025 L 156 410 153 410 L 150 410 150 416.500 L 150 423 146.250 422.998 C 137.825 422.995, 132.005 416.957, 132.002 408.218 C 131.998 399.165, 136.582 393.727, 144.217 393.727 C 147.507 393.727, 148.860 394.299, 150.736 396.479 C 153.483 399.673, 153.526 399.653, 154.388 394.879 C 155.011 391.430, 154.893 391.229, 151.896 390.629 C 147.060 389.662, 141.878 389.953, 137.759 391.423 M 199.250 392.706 C 197.455 393.051, 197 393.811, 197 396.461 C 197 399.185, 196.542 399.898, 194.459 400.421 C 191.617 401.134, 192.051 403, 195.059 403 C 196.844 403, 197 403.763, 197 412.500 C 197 420.667, 197.281 422.281, 199 424 C 200.960 425.960, 205.278 426.598, 208.418 425.393 C 210.776 424.488, 210.329 423, 207.700 423 C 203.764 423, 203 421.179, 203 411.800 L 203 403 206.500 403 C 208.944 403, 210 402.548, 210 401.500 C 210 400.452, 208.944 400, 206.500 400 C 203.083 400, 203 399.905, 203 396 C 203 393.800, 202.662 392.061, 202.250 392.136 C 201.838 392.211, 200.488 392.467, 199.250 392.706 M 332.295 399.085 C 328.197 400.298, 326 403.462, 326 408.150 C 326 410.868, 326.638 412.357, 328.395 413.739 C 330.277 415.219, 330.576 416.006, 329.790 417.411 C 329.240 418.394, 329.046 420.479, 329.359 422.043 C 329.803 424.265, 329.508 425.021, 328.015 425.495 C 323.851 426.817, 324.250 433.725, 328.624 436.067 C 332.802 438.302, 342.275 437.931, 345.677 435.398 C 349.913 432.244, 350.860 428.630, 348.339 425.248 C 346.623 422.947, 345.265 422.385, 339.988 421.793 C 333.090 421.020, 331.605 420.194, 332.574 417.667 C 333.022 416.501, 334.399 416, 337.152 416 C 342.371 416, 346 412.532, 346 407.545 C 346 405.061, 346.449 404, 347.500 404 C 348.325 404, 349 403.163, 349 402.139 C 349 400.672, 347.995 400.149, 344.250 399.665 C 341.637 399.327, 338.600 398.845, 337.500 398.593 C 336.400 398.341, 334.058 398.563, 332.295 399.085 M 170.108 400.716 C 161.398 405.007, 161.037 420.962, 169.561 424.846 C 172.871 426.354, 178.861 426.294, 181.970 424.721 C 191.041 420.131, 191.368 404.141, 182.466 400.421 C 178.027 398.567, 174.291 398.656, 170.108 400.716 M 220.388 399.980 C 212.517 403.160, 210.801 416.707, 217.475 422.977 C 221.846 427.083, 236 426.738, 236 422.525 C 236 420.720, 236.305 420.765, 232.151 421.957 C 227.128 423.397, 223.089 422.194, 220.900 418.604 C 217.249 412.617, 217.912 412, 228 412 C 237.979 412, 238.218 411.792, 235.892 405.119 C 234.100 399.980, 226.567 397.483, 220.388 399.980 M 280.270 400.428 C 271.259 404.497, 270.416 420.061, 278.967 424.483 C 289.071 429.708, 300.022 421.763, 298.714 410.159 C 297.741 401.522, 288.566 396.682, 280.270 400.428 M 305.250 399.706 C 302.462 400.243, 302.336 401.654, 305 402.500 C 306.847 403.086, 307 404.013, 307 414.634 L 307 426.133 309.750 425.816 L 312.500 425.500 313 415.605 C 313.403 407.630, 313.839 405.496, 315.247 404.612 C 316.537 403.801, 317.513 403.839, 318.983 404.757 C 321.821 406.530, 322 406.395, 322 402.500 C 322 399.525, 321.659 399, 319.723 399 C 318.470 399, 316.491 399.669, 315.324 400.486 C 313.448 401.800, 313.137 401.800, 312.633 400.486 C 312.080 399.044, 309.888 398.812, 305.250 399.706 M 357.500 400.096 C 350.277 404.257, 351.867 411.451, 360.788 414.975 C 364.698 416.520, 366.215 418.864, 364.866 421.276 C 363.679 423.396, 359.090 423.535, 356.441 421.532 C 353.715 419.470, 353 419.647, 353 422.383 C 353 428.467, 370.027 426.726, 371.594 420.482 C 372.815 415.615, 371.296 413.106, 365.603 410.588 C 359.377 407.835, 358.503 406.797, 360.021 403.961 C 361.515 401.169, 366.130 401.657, 367.487 404.750 C 368.030 405.988, 368.766 407, 369.124 407 C 369.847 407, 370.984 400.741, 370.380 400.082 C 369.435 399.050, 359.297 399.061, 357.500 400.096 M 333.035 402.934 C 331.505 405.794, 331.778 410.635, 333.571 412.429 C 336.773 415.630, 340 413.525, 340 408.234 C 340 403.861, 338.418 401, 336 401 C 334.939 401, 333.605 401.870, 333.035 402.934 M 172.780 403.064 C 170.534 404.373, 168.700 411.312, 169.537 415.334 C 170.601 420.442, 172.713 423, 175.868 423 C 179.547 423, 182.038 420.137, 182.708 415.138 C 183.946 405.909, 178.747 399.586, 172.780 403.064 M 222.313 402.786 C 221.659 403.201, 220.658 404.769, 220.087 406.270 L 219.050 409 224.525 409 C 229.571 409, 230 408.820, 230 406.700 C 230 402.743, 225.768 400.588, 222.313 402.786 M 283.229 402.669 C 279.067 404.344, 277.766 414.464, 281.027 419.812 C 282.738 422.618, 283.538 423.076, 286.273 422.812 C 290.741 422.380, 293.509 416.883, 292.534 410.378 C 291.551 403.825, 287.892 400.793, 283.229 402.669 M 250.667 404.667 C 249.474 405.859, 249.931 420.531, 251.200 421.800 C 253.284 423.884, 257.805 423.227, 259.534 420.589 C 261.749 417.208, 261.694 408.424, 259.442 405.935 C 257.744 404.059, 252.091 403.242, 250.667 404.667 M 332.750 427.080 C 330.400 428.449, 330.513 432.669, 332.934 433.965 C 336.286 435.758, 340.745 435.202, 342.443 432.777 C 344.382 430.009, 344.381 429.524, 342.429 427.571 C 340.661 425.804, 335.400 425.537, 332.750 427.080 M 288.250 439.685 C 285.471 440.246, 285.398 441.143, 288 442.768 C 289.457 443.678, 290 445.100, 290 448.008 L 290 452 285.404 452 C 276.952 452, 271.997 457.049, 272.004 465.654 C 272.009 472.224, 274.735 476.541, 279.846 478.072 C 283.160 479.065, 284.319 478.987, 287.130 477.585 C 289.217 476.544, 290.603 476.309, 290.820 476.959 C 291.010 477.531, 293.220 478, 295.729 478 L 300.292 478 297.569 475.477 L 294.846 472.953 295.108 456.227 L 295.370 439.500 292.935 439.366 C 291.596 439.292, 289.488 439.435, 288.250 439.685 M 203.314 444.950 C 199.555 447.242, 198 449.806, 198 453.712 C 198 457.877, 200.384 460.607, 205.748 462.586 C 212.014 464.897, 214 466.714, 214 470.132 C 214 475.988, 206.423 477.580, 201.301 472.799 L 199.102 470.747 198.415 473.481 C 197.592 476.762, 198.740 477.676, 204.850 478.599 C 214.362 480.038, 221.717 474.642, 220.580 467.060 C 219.915 462.628, 217.463 460.250, 210.844 457.618 C 205.841 455.630, 205.480 455.255, 205.190 451.753 C 204.928 448.586, 205.262 447.838, 207.366 446.879 C 210.932 445.254, 214.878 446.550, 216.093 449.744 C 216.914 451.904, 217.297 452.144, 218.042 450.966 C 219.525 448.622, 219.156 444.274, 217.418 443.607 C 214.051 442.315, 206.449 443.039, 203.314 444.950 M 228.667 445.667 C 228.300 446.033, 228 447.833, 228 449.667 C 228 452.556, 227.667 453, 225.500 453 C 222.251 453, 222.270 454.779, 225.527 455.596 L 228.054 456.230 227.391 465.024 C 226.746 473.564, 226.801 473.892, 229.318 476.409 C 232.090 479.181, 234.343 479.580, 238.435 478.025 C 241.511 476.855, 241.964 474.559, 238.928 475.523 C 237.605 475.943, 236.160 475.550, 234.928 474.435 C 233.317 472.977, 233 471.317, 233 464.345 L 233 456 236.500 456 C 241.141 456, 241.356 453.257, 236.750 452.813 C 233.783 452.527, 233.473 452.174, 233.190 448.750 C 232.957 445.943, 232.433 445, 231.106 445 C 230.131 445, 229.033 445.300, 228.667 445.667 M 247.750 453.080 C 246.195 453.986, 245.171 459, 246.540 459 C 246.838 459, 248.436 457.998, 250.092 456.774 C 252.884 454.710, 253.300 454.658, 255.802 456.055 C 257.459 456.981, 258.619 458.575, 258.807 460.186 C 259.091 462.610, 258.711 462.896, 253.820 463.945 C 246.289 465.560, 244 467.310, 244 471.450 C 244 477.697, 251.545 481.108, 256.965 477.312 C 258.674 476.115, 259.490 475.970, 259.771 476.812 C 260.003 477.508, 262.101 477.991, 264.833 477.978 L 269.500 477.956 267.182 476.172 C 265.080 474.555, 264.847 473.522, 264.682 465.105 C 264.517 456.668, 264.285 455.647, 262.139 453.911 C 259.519 451.790, 250.826 451.288, 247.750 453.080 M 280.486 457.015 C 279.385 458.232, 278.492 461.106, 278.233 464.265 C 277.561 472.457, 282.246 477.079, 288.066 473.965 C 289.697 473.092, 290 471.827, 290 465.899 C 290 462.032, 289.534 457.998, 288.965 456.934 C 287.590 454.366, 282.843 454.411, 280.486 457.015 M 253.009 467.290 C 248.513 469.564, 249.626 475, 254.587 475 C 257.220 475, 259 472.404, 259 468.566 C 259 465.658, 257.054 465.243, 253.009 467.290" stroke="none" fill="black" fill-rule="evenodd"/>
</svg>